<svg width="13" height="13" viewBox="0 0 13 13" fill="none" xmlns="http://www.w3.org/2000/svg">
<path d="M6.50016 2.16669C6.07164 2.16669 5.65273 2.29376 5.29643 2.53184C4.94012 2.76991 4.66241 3.1083 4.49842 3.50421C4.33443 3.90011 4.29153 4.33576 4.37513 4.75605C4.45873 5.17634 4.66509 5.5624 4.9681 5.86542C5.27111 6.16843 5.65718 6.37479 6.07747 6.45839C6.49776 6.54199 6.9334 6.49908 7.32931 6.33509C7.72522 6.1711 8.0636 5.8934 8.30168 5.53709C8.53976 5.18078 8.66683 4.76188 8.66683 4.33335C8.66683 3.75872 8.43856 3.20762 8.03223 2.80129C7.6259 2.39496 7.0748 2.16669 6.50016 2.16669ZM6.50016 5.41669C6.2859 5.41669 6.07645 5.35315 5.8983 5.23411C5.72014 5.11507 5.58129 4.94588 5.49929 4.74793C5.4173 4.54997 5.39585 4.33215 5.43765 4.12201C5.47945 3.91186 5.58262 3.71883 5.73413 3.56732C5.88564 3.41581 6.07867 3.31264 6.28882 3.27084C6.49896 3.22904 6.71678 3.25049 6.91474 3.33248C7.11269 3.41448 7.28188 3.55333 7.40092 3.73149C7.51996 3.90964 7.5835 4.11909 7.5835 4.33335C7.5835 4.62067 7.46936 4.89622 7.2662 5.09939C7.06303 5.30255 6.78748 5.41669 6.50016 5.41669Z" fill="black"/>
<path d="M6.50023 8C2.90023 8.8 3.00023 11.3333 3.50023 12.5H9.75C10.35 9.3 7.83349 8.16667 6.50023 8Z" stroke="black"/>
</svg>
