<svg width="13" height="13" viewBox="0 0 13 13" fill="none" xmlns="http://www.w3.org/2000/svg">
<g clip-path="url(#clip0)">
<path d="M10.2917 1.08333H9.75V0.541667C9.75 0.398008 9.69293 0.260233 9.59135 0.158651C9.48977 0.0570683 9.35199 0 9.20833 0C9.06467 0 8.9269 0.0570683 8.82532 0.158651C8.72373 0.260233 8.66667 0.398008 8.66667 0.541667V1.08333H4.33333V0.541667C4.33333 0.398008 4.27627 0.260233 4.17468 0.158651C4.0731 0.0570683 3.93533 0 3.79167 0C3.64801 0 3.51023 0.0570683 3.40865 0.158651C3.30707 0.260233 3.25 0.398008 3.25 0.541667V1.08333H2.70833C1.9903 1.08419 1.30193 1.36981 0.794202 1.87754C0.286478 2.38526 0.00086009 3.07364 0 3.79167L0 10.2917C0.00086009 11.0097 0.286478 11.6981 0.794202 12.2058C1.30193 12.7135 1.9903 12.9991 2.70833 13H10.2917C11.0097 12.9991 11.6981 12.7135 12.2058 12.2058C12.7135 11.6981 12.9991 11.0097 13 10.2917V3.79167C12.9991 3.07364 12.7135 2.38526 12.2058 1.87754C11.6981 1.36981 11.0097 1.08419 10.2917 1.08333ZM1.08333 3.79167C1.08333 3.36069 1.25454 2.94736 1.55928 2.64262C1.86403 2.33787 2.27736 2.16667 2.70833 2.16667H10.2917C10.7226 2.16667 11.136 2.33787 11.4407 2.64262C11.7455 2.94736 11.9167 3.36069 11.9167 3.79167V4.33333H1.08333V3.79167ZM10.2917 11.9167H2.70833C2.27736 11.9167 1.86403 11.7455 1.55928 11.4407C1.25454 11.136 1.08333 10.7226 1.08333 10.2917V5.41667H11.9167V10.2917C11.9167 10.7226 11.7455 11.136 11.4407 11.4407C11.136 11.7455 10.7226 11.9167 10.2917 11.9167Z" fill="black"/>
<path d="M6.5 8.9375C6.94873 8.9375 7.3125 8.57373 7.3125 8.125C7.3125 7.67627 6.94873 7.3125 6.5 7.3125C6.05127 7.3125 5.6875 7.67627 5.6875 8.125C5.6875 8.57373 6.05127 8.9375 6.5 8.9375Z" fill="black"/>
<path d="M3.7915 8.9375C4.24023 8.9375 4.604 8.57373 4.604 8.125C4.604 7.67627 4.24023 7.3125 3.7915 7.3125C3.34277 7.3125 2.979 7.67627 2.979 8.125C2.979 8.57373 3.34277 8.9375 3.7915 8.9375Z" fill="black"/>
<path d="M9.2085 8.9375C9.65723 8.9375 10.021 8.57373 10.021 8.125C10.021 7.67627 9.65723 7.3125 9.2085 7.3125C8.75976 7.3125 8.396 7.67627 8.396 8.125C8.396 8.57373 8.75976 8.9375 9.2085 8.9375Z" fill="black"/>
</g>
<defs>
<clipPath id="clip0">
<rect width="13" height="13" fill="white"/>
</clipPath>
</defs>
</svg>
