<svg width="14" height="14" viewBox="0 0 14 14" fill="none" xmlns="http://www.w3.org/2000/svg">
<g clip-path="url(#clip0)">
<path d="M13.4168 9.3335C13.2621 9.3335 13.1137 9.39495 13.0043 9.50435C12.895 9.61375 12.8335 9.76212 12.8335 9.91683V11.0835C12.8335 11.5476 12.6491 11.9927 12.3209 12.3209C11.9927 12.6491 11.5476 12.8335 11.0835 12.8335H9.91683C9.76212 12.8335 9.61375 12.895 9.50435 13.0043C9.39495 13.1137 9.3335 13.2621 9.3335 13.4168C9.3335 13.5715 9.39495 13.7199 9.50435 13.8293C9.61375 13.9387 9.76212 14.0002 9.91683 14.0002H11.0835C11.8568 13.9992 12.5981 13.6916 13.1449 13.1449C13.6916 12.5981 13.9992 11.8568 14.0002 11.0835V9.91683C14.0002 9.76212 13.9387 9.61375 13.8293 9.50435C13.7199 9.39495 13.5715 9.3335 13.4168 9.3335Z" fill="black"/>
<path d="M0.583333 4.66667C0.738043 4.66667 0.886416 4.60521 0.995812 4.49581C1.10521 4.38642 1.16667 4.23804 1.16667 4.08333V2.91667C1.16667 2.45254 1.35104 2.00742 1.67923 1.67923C2.00742 1.35104 2.45254 1.16667 2.91667 1.16667H4.08333C4.23804 1.16667 4.38642 1.10521 4.49581 0.995812C4.60521 0.886416 4.66667 0.738043 4.66667 0.583333C4.66667 0.428624 4.60521 0.280251 4.49581 0.170854C4.38642 0.0614582 4.23804 0 4.08333 0L2.91667 0C2.1434 0.00092625 1.40208 0.308515 0.855295 0.855295C0.308515 1.40208 0.00092625 2.1434 0 2.91667L0 4.08333C0 4.23804 0.0614582 4.38642 0.170854 4.49581C0.280251 4.60521 0.428624 4.66667 0.583333 4.66667Z" fill="black"/>
<path d="M4.08333 12.8335H2.91667C2.45254 12.8335 2.00742 12.6491 1.67923 12.3209C1.35104 11.9927 1.16667 11.5476 1.16667 11.0835V9.91683C1.16667 9.76212 1.10521 9.61375 0.995812 9.50435C0.886416 9.39495 0.738043 9.3335 0.583333 9.3335C0.428624 9.3335 0.280251 9.39495 0.170854 9.50435C0.0614582 9.61375 0 9.76212 0 9.91683L0 11.0835C0.00092625 11.8568 0.308515 12.5981 0.855295 13.1449C1.40208 13.6916 2.1434 13.9992 2.91667 14.0002H4.08333C4.23804 14.0002 4.38642 13.9387 4.49581 13.8293C4.60521 13.7199 4.66667 13.5715 4.66667 13.4168C4.66667 13.2621 4.60521 13.1137 4.49581 13.0043C4.38642 12.895 4.23804 12.8335 4.08333 12.8335Z" fill="black"/>
<path d="M11.0835 0H9.91683C9.76212 0 9.61375 0.0614582 9.50435 0.170854C9.39495 0.280251 9.3335 0.428624 9.3335 0.583333C9.3335 0.738043 9.39495 0.886416 9.50435 0.995812C9.61375 1.10521 9.76212 1.16667 9.91683 1.16667H11.0835C11.5476 1.16667 11.9927 1.35104 12.3209 1.67923C12.6491 2.00742 12.8335 2.45254 12.8335 2.91667V4.08333C12.8335 4.23804 12.895 4.38642 13.0043 4.49581C13.1137 4.60521 13.2621 4.66667 13.4168 4.66667C13.5715 4.66667 13.7199 4.60521 13.8293 4.49581C13.9387 4.38642 14.0002 4.23804 14.0002 4.08333V2.91667C13.9992 2.1434 13.6916 1.40208 13.1449 0.855295C12.5981 0.308515 11.8568 0.00092625 11.0835 0V0Z" fill="black"/>
<path d="M6.99984 6.41667C7.46133 6.41667 7.91245 6.27982 8.29617 6.02343C8.67988 5.76704 8.97895 5.40262 9.15556 4.97626C9.33216 4.5499 9.37837 4.08075 9.28834 3.62812C9.1983 3.1755 8.97608 2.75974 8.64975 2.43342C8.32343 2.1071 7.90767 1.88487 7.45505 1.79484C7.00243 1.7048 6.53327 1.75101 6.10691 1.92762C5.68055 2.10422 5.31613 2.40329 5.05974 2.787C4.80335 3.17072 4.6665 3.62184 4.6665 4.08333C4.6665 4.70217 4.91234 5.29567 5.34992 5.73325C5.78751 6.17084 6.381 6.41667 6.99984 6.41667ZM6.99984 2.91667C7.23058 2.91667 7.45614 2.98509 7.648 3.11329C7.83986 3.24148 7.98939 3.42369 8.0777 3.63687C8.166 3.85005 8.1891 4.08463 8.14409 4.31094C8.09907 4.53725 7.98796 4.74513 7.82479 4.90829C7.66163 5.07145 7.45375 5.18257 7.22744 5.22758C7.00113 5.2726 6.76655 5.2495 6.55337 5.16119C6.34019 5.07289 6.15798 4.92336 6.02979 4.7315C5.90159 4.53964 5.83317 4.31408 5.83317 4.08333C5.83317 3.77392 5.95609 3.47717 6.17488 3.25838C6.39367 3.03958 6.69042 2.91667 6.99984 2.91667Z" fill="black"/>
<path d="M10.4998 11.6668C10.6545 11.6668 10.8029 11.6054 10.9123 11.496C11.0217 11.3866 11.0832 11.2382 11.0832 11.0835C11.0822 10.1555 10.7132 9.26582 10.057 8.60965C9.40085 7.95347 8.51115 7.58442 7.58317 7.5835H6.4165C5.48853 7.58442 4.59883 7.95347 3.94265 8.60965C3.28648 9.26582 2.91743 10.1555 2.9165 11.0835C2.9165 11.2382 2.97796 11.3866 3.08736 11.496C3.19675 11.6054 3.34513 11.6668 3.49984 11.6668C3.65455 11.6668 3.80292 11.6054 3.91232 11.496C4.02171 11.3866 4.08317 11.2382 4.08317 11.0835C4.08317 10.4647 4.329 9.87117 4.76659 9.43358C5.20417 8.996 5.79767 8.75016 6.4165 8.75016H7.58317C8.20201 8.75016 8.7955 8.996 9.23309 9.43358C9.67067 9.87117 9.9165 10.4647 9.9165 11.0835C9.9165 11.2382 9.97796 11.3866 10.0874 11.496C10.1968 11.6054 10.3451 11.6668 10.4998 11.6668Z" fill="black"/>
</g>
<defs>
<clipPath id="clip0">
<rect width="14" height="14" fill="white"/>
</clipPath>
</defs>
</svg>
