<svg width="14" height="14" viewBox="0 0 14 14" fill="none" xmlns="http://www.w3.org/2000/svg">
<path fill-rule="evenodd" clip-rule="evenodd" d="M5.37087 8.62959C6.72304 9.98182 7.97896 10.7355 8.91346 11.1544C9.72954 11.5201 10.6926 11.2331 11.4434 10.4823L11.6149 10.3103L9.55221 8.99769C9.16021 9.56939 8.41879 9.90482 7.67854 9.59272C7.11796 9.35588 6.37596 8.95102 5.71271 8.28774C5.04946 7.62446 4.64521 6.88242 4.40837 6.32181C4.09571 5.58153 4.43054 4.84007 5.00279 4.44805L3.69029 2.38529L3.51821 2.5568C2.76746 3.30758 2.48104 4.27071 2.84621 5.08684C3.26504 6.02138 4.01871 7.27736 5.37087 8.62959ZM8.43687 12.219C7.37812 11.7447 6.00321 10.9117 4.54604 9.45446C3.08887 7.99781 2.25587 6.62224 1.78104 5.56344C1.15396 4.16337 1.72679 2.69914 2.69337 1.73192L2.86487 1.55983C2.98839 1.43623 3.13809 1.34195 3.30293 1.28396C3.46776 1.22596 3.64352 1.20574 3.81722 1.22478C3.99091 1.24382 4.15811 1.30163 4.30647 1.39396C4.45483 1.48628 4.58056 1.61075 4.67437 1.75817L6.32521 4.35413C6.36893 4.42299 6.39773 4.50026 6.40974 4.58094C6.42175 4.66162 6.41671 4.74392 6.39494 4.82254C6.37318 4.90115 6.33516 4.97432 6.28336 5.03733C6.23156 5.10034 6.16712 5.15178 6.09421 5.18834L5.72496 5.37327C5.47296 5.49927 5.42162 5.72153 5.48287 5.86796C5.68062 6.3364 6.01137 6.93609 6.53754 7.46287C7.06429 7.98906 7.66396 8.31983 8.13237 8.51759C8.27879 8.57942 8.50104 8.5275 8.62704 8.27549L8.81196 7.90622C8.84846 7.83325 8.89986 7.76876 8.96285 7.71689C9.02583 7.66503 9.09899 7.62696 9.1776 7.60513C9.25621 7.5833 9.33853 7.57821 9.41923 7.59018C9.49994 7.60215 9.57723 7.63092 9.64612 7.67463L12.242 9.32613C12.3894 9.41994 12.5138 9.54568 12.6062 9.69404C12.6985 9.84241 12.7563 10.0096 12.7753 10.1833C12.7944 10.357 12.7741 10.5328 12.7162 10.6976C12.6582 10.8625 12.5639 11.0122 12.4403 11.1357L12.2682 11.3072C11.3016 12.2744 9.83746 12.8467 8.43687 12.219Z" fill="black"/>
</svg>
