<svg width="15" height="15" viewBox="0 0 15 15" fill="none" xmlns="http://www.w3.org/2000/svg">
<g clip-path="url(#clip0)">
<path d="M12.5 5.00018C12.5018 4.19072 12.307 3.39293 11.9324 2.67536C11.5578 1.95779 11.0145 1.3419 10.3494 0.880604C9.68421 0.419309 8.917 0.126405 8.11365 0.0270588C7.31031 -0.0722874 6.49485 0.0248948 5.73735 0.310255C4.97985 0.595616 4.30296 1.06062 3.76484 1.66532C3.22672 2.27002 2.84345 2.99632 2.64798 3.78183C2.4525 4.56734 2.45066 5.38856 2.64262 6.17494C2.83457 6.96132 3.21458 7.68933 3.74999 8.29643V13.4377C3.74998 13.732 3.83312 14.0204 3.98982 14.2695C4.14652 14.5187 4.37042 14.7185 4.63571 14.846C4.90101 14.9735 5.19693 15.0235 5.48938 14.9902C5.78183 14.9568 6.05892 14.8416 6.28874 14.6577L7.30499 13.8452C7.36036 13.801 7.42912 13.7769 7.49999 13.7769C7.57085 13.7769 7.63961 13.801 7.69499 13.8452L8.71124 14.6577C8.94106 14.8416 9.21815 14.9568 9.5106 14.9902C9.80305 15.0235 10.099 14.9735 10.3643 14.846C10.6296 14.7185 10.8535 14.5187 11.0102 14.2695C11.1669 14.0204 11.25 13.732 11.25 13.4377V8.29643C12.0552 7.38718 12.4998 6.21471 12.5 5.00018ZM7.49999 1.25018C8.24167 1.25018 8.96669 1.47012 9.58338 1.88217C10.2001 2.29423 10.6807 2.8799 10.9645 3.56512C11.2484 4.25034 11.3226 5.00434 11.1779 5.73177C11.0332 6.4592 10.6761 7.12739 10.1516 7.65183C9.62719 8.17628 8.95901 8.53343 8.23158 8.67813C7.50415 8.82282 6.75015 8.74856 6.06493 8.46473C5.3797 8.1809 4.79403 7.70026 4.38198 7.08357C3.96992 6.46689 3.74999 5.74186 3.74999 5.00018C3.75098 4.00593 4.14639 3.05268 4.84943 2.34963C5.55248 1.64658 6.50573 1.25118 7.49999 1.25018ZM9.82311 13.7177C9.77023 13.7439 9.71092 13.7543 9.65228 13.7476C9.59364 13.741 9.53816 13.7176 9.49249 13.6802L8.47624 12.8677C8.19964 12.6449 7.85516 12.5234 7.49999 12.5234C7.14482 12.5234 6.80033 12.6449 6.52374 12.8677L5.50811 13.6802C5.46225 13.717 5.40694 13.7401 5.34852 13.7469C5.29011 13.7537 5.23096 13.7438 5.17789 13.7185C5.12482 13.6932 5.07997 13.6534 5.0485 13.6037C5.01703 13.554 5.00021 13.4965 4.99999 13.4377V9.32393C5.75872 9.76679 6.62147 10.0002 7.49999 10.0002C8.37851 10.0002 9.24126 9.76679 9.99999 9.32393V13.4377C10.0007 13.4964 9.98435 13.5542 9.95297 13.6038C9.92158 13.6535 9.87648 13.6931 9.82311 13.7177Z" fill="black"/>
</g>
<defs>
<clipPath id="clip0">
<rect width="15" height="15" fill="white"/>
</clipPath>
</defs>
</svg>
