<svg width="14" height="14" viewBox="0 0 14 14" fill="none" xmlns="http://www.w3.org/2000/svg">
<g clip-path="url(#clip0)">
<path d="M5.25 5.25C5.25 5.09529 5.31146 4.94692 5.42085 4.83752C5.53025 4.72812 5.67862 4.66667 5.83333 4.66667H6.41667V4.08333C6.41667 3.92862 6.47812 3.78025 6.58752 3.67085C6.69692 3.56146 6.84529 3.5 7 3.5C7.15471 3.5 7.30308 3.56146 7.41248 3.67085C7.52187 3.78025 7.58333 3.92862 7.58333 4.08333V4.66667H8.16667C8.32138 4.66667 8.46975 4.72812 8.57915 4.83752C8.68854 4.94692 8.75 5.09529 8.75 5.25C8.75 5.40471 8.68854 5.55308 8.57915 5.66248C8.46975 5.77187 8.32138 5.83333 8.16667 5.83333H7.58333V6.41667C7.58333 6.57138 7.52187 6.71975 7.41248 6.82915C7.30308 6.93854 7.15471 7 7 7C6.84529 7 6.69692 6.93854 6.58752 6.82915C6.47812 6.71975 6.41667 6.57138 6.41667 6.41667V5.83333H5.83333C5.67862 5.83333 5.53025 5.77187 5.42085 5.66248C5.31146 5.55308 5.25 5.40471 5.25 5.25ZM9.33333 8.16667H4.66667C4.51196 8.16667 4.36358 8.22812 4.25419 8.33752C4.14479 8.44692 4.08333 8.59529 4.08333 8.75C4.08333 8.90471 4.14479 9.05308 4.25419 9.16248C4.36358 9.27187 4.51196 9.33333 4.66667 9.33333H9.33333C9.48804 9.33333 9.63642 9.27187 9.74581 9.16248C9.85521 9.05308 9.91667 8.90471 9.91667 8.75C9.91667 8.59529 9.85521 8.44692 9.74581 8.33752C9.63642 8.22812 9.48804 8.16667 9.33333 8.16667ZM7 10.5H4.66667C4.51196 10.5 4.36358 10.5615 4.25419 10.6709C4.14479 10.7802 4.08333 10.9286 4.08333 11.0833C4.08333 11.238 4.14479 11.3864 4.25419 11.4958C4.36358 11.6052 4.51196 11.6667 4.66667 11.6667H7C7.15471 11.6667 7.30308 11.6052 7.41248 11.4958C7.52187 11.3864 7.58333 11.238 7.58333 11.0833C7.58333 10.9286 7.52187 10.7802 7.41248 10.6709C7.30308 10.5615 7.15471 10.5 7 10.5ZM12.25 4.08333V11.0833C12.2491 11.8566 11.9415 12.5979 11.3947 13.1447C10.8479 13.6915 10.1066 13.9991 9.33333 14H4.66667C3.8934 13.9991 3.15208 13.6915 2.60529 13.1447C2.05851 12.5979 1.75093 11.8566 1.75 11.0833V4.08333C1.75093 3.31007 2.05851 2.56874 2.60529 2.02196C3.15208 1.47518 3.8934 1.16759 4.66667 1.16667H4.76642C4.88751 0.825704 5.11111 0.530548 5.40656 0.321675C5.70201 0.112803 6.05484 0.000441436 6.41667 0L7.58333 0C7.94516 0.000441436 8.29799 0.112803 8.59344 0.321675C8.88889 0.530548 9.11249 0.825704 9.23358 1.16667H9.33333C10.1066 1.16759 10.8479 1.47518 11.3947 2.02196C11.9415 2.56874 12.2491 3.31007 12.25 4.08333ZM11.0833 4.08333C11.0833 3.6192 10.899 3.17409 10.5708 2.8459C10.2426 2.51771 9.79746 2.33333 9.33333 2.33333H8.75C8.59529 2.33333 8.44692 2.27188 8.33752 2.16248C8.22812 2.05308 8.16667 1.90471 8.16667 1.75C8.16667 1.59529 8.10521 1.44692 7.99581 1.33752C7.88642 1.22812 7.73804 1.16667 7.58333 1.16667H6.41667C6.26196 1.16667 6.11358 1.22812 6.00419 1.33752C5.89479 1.44692 5.83333 1.59529 5.83333 1.75C5.83333 1.90471 5.77187 2.05308 5.66248 2.16248C5.55308 2.27188 5.40471 2.33333 5.25 2.33333H4.66667C4.20254 2.33333 3.75742 2.51771 3.42923 2.8459C3.10104 3.17409 2.91667 3.6192 2.91667 4.08333V11.0833C2.91667 11.5475 3.10104 11.9926 3.42923 12.3208C3.75742 12.649 4.20254 12.8333 4.66667 12.8333H9.33333C9.79746 12.8333 10.2426 12.649 10.5708 12.3208C10.899 11.9926 11.0833 11.5475 11.0833 11.0833V4.08333Z" fill="black"/>
</g>
<defs>
<clipPath id="clip0">
<rect width="14" height="14" fill="white"/>
</clipPath>
</defs>
</svg>
